<svg aria-hidden="true" style="position: absolute; width: 0; height: 0; overflow: hidden;" version="1.1" xmlns="http://www.w3.org/2000/svg" xmlns:xlink="http://www.w3.org/1999/xlink">
<defs>
<symbol id="trident" viewBox="0 0 19 32">
<path d="M9.647 0.080c-0.743 0.842-1.196 1.944-1.196 3.154 0.044 2.656 0.37 5.309 0.399 7.96 0.059 2.476-0.684 4.8-1.588 7.069-0.301 0.627-0.627 1.239-0.953 1.854l-0.957-0.193c-0.863-0.172-1.425-1.010-1.252-1.872 0.151-0.754 0.816-1.282 1.557-1.282l0.349 0.037-0.779-6.496c-0.254-2.89-1.748-5.429-3.947-7.077-0.378-0.283-0.779-0.543-1.196-0.771v23.061h5.332c0.399 2.157 1.59 4.044 3.264 5.333 0.398 0.274 0.732 0.635 0.972 1.057 0.239-0.422 0.573-0.783 0.972-1.057 1.674-1.293 2.865-3.175 3.264-5.333h5.332v-23.061c-0.417 0.228-0.818 0.488-1.196 0.771-2.2 1.65-3.691 4.187-3.947 7.077l-0.779 6.496 0.349-0.037c0.741 0.003 1.406 0.527 1.557 1.282 0.172 0.862-0.389 1.699-1.252 1.872l-0.957 0.193c-0.326-0.614-0.652-1.227-0.953-1.854-0.905-2.267-1.648-4.591-1.589-7.069 0.029-2.659 0.355-5.309 0.399-7.96 0-1.21-0.453-2.308-1.196-3.154h-0.012zM1.674 5.787c1.032 1.209 1.725 2.714 1.929 4.373l0.638 5.357c-0.817 0.406-1.435 1.151-1.67 2.053h-0.903v-11.781l0.006-0.002zM17.62 5.787v11.781h-0.903c-0.233-0.901-0.852-1.646-1.669-2.053l0.638-5.357c0.207-1.657 0.899-3.163 1.929-4.373l0.006 0.002zM9.647 16.557c0.428 1.399 1.017 2.73 1.75 3.963-0.697 0.211-1.303 0.622-1.75 1.175-0.447-0.553-1.053-0.963-1.75-1.176 0.733-1.235 1.322-2.563 1.75-3.962zM1.674 19.163h0.903c0.285 1.099 1.144 1.967 2.232 2.27l0.766 0.174c-0.205 0.742-0.317 1.52-0.317 2.332h-3.588v-4.776l0.003-0.001zM16.719 19.163h0.903v4.776h-3.588c0-0.807-0.112-1.59-0.317-2.332l0.766-0.174c1.092-0.303 1.951-1.172 2.232-2.27l0.003 0.001zM7.136 21.973c0.967 0.136 1.713 0.963 1.713 1.965h-1.993c0-0.682 0.101-1.34 0.281-1.965zM12.156 21.973c0.179 0.625 0.281 1.282 0.281 1.965h-1.993c0-1.004 0.745-1.829 1.713-1.965zM7.038 25.532h1.812v3.351c-0.877-0.919-1.515-2.070-1.812-3.351zM10.444 25.532h1.812c-0.293 1.282-0.933 2.433-1.812 3.351v-3.351z"></path>
</symbol>
</defs>
</svg>
